# xmcd
#
# Track frame offsets: 
#        150
#        15327
#        37074
#        53145
#        75760
#        100173
#        123922
#        141458
#        160867
#        174350
#        192170
#        214722
#        233244
#        251268
#        268217
#        281764
#
# Disc length: 3922 seconds
#
# Revision: 0
# Processed by: cddbd v1.5.1PL0 Copyright (c) Steve Scherf et al.
# Submitted via: ExactAudioCopy v0.95b2
#
DISCID=d40f5010
DTITLE=Big Sugar - Hit And Run
DYEAR=2005
DGENRE=Blues
TTITLE0=Sleep In Late
TTITLE1=Ride Like Hell
TTITLE2=I'm A Ram
TTITLE3=Dear Mr. Fantasy
TTITLE4=Diggin A Hole
TTITLE5=If I Had My Way
TTITLE6=Opem Up Baby
TTITLE7=The Scene
TTITLE8=Better Get Used To It
TTITLE9=Turn The Lights On
TTITLE10=Red Rover
TTITLE11=Nicotina (She's All That)
TTITLE12=All Hell For A Basement
TTITLE13=I Want You Now
TTITLE14=Trouble In The City
TTITLE15=Three Minute Song
EXTD=
EXTT0=
EXTT1=
EXTT2=
EXTT3=
EXTT4=
EXTT5=
EXTT6=
EXTT7=
EXTT8=
EXTT9=
EXTT10=
EXTT11=
EXTT12=
EXTT13=
EXTT14=
EXTT15=
PLAYORDER=
